<svg xmlns="http://www.w3.org/2000/svg" viewBox="0 0 107.32 110.63"><g data-name="Camada 2"><g data-name="Camada 1"><path d="M107.2.91c0-.72-.18-.92-.93-.91a115.39 115.39 0 0 0-25.71 3.18C63.85 7.39 49.68 15.59 39.33 29.7a2.27 2.27 0 0 1-1.75 1 20.3 20.3 0 0 0-5 1.22c-6.16 2.22-11.06 6.24-15.53 10.86a96.29 96.29 0 0 0-13.85 19c-1 1.74-1.92 3.54-2.81 5.34A2.87 2.87 0 0 0 5 70.61l.75-.67a41.39 41.39 0 0 1 21-10.17c2.12-.35 2.12-.33 3.19 1.54.09.16.2.31.3.47a48.54 48.54 0 0 0 8.45 10c1.52 1.43 3 2.84 4.66 4.14a33 33 0 0 0 8 5c.49.21.49.52.47 1a35.45 35.45 0 0 1-1.53 8.67A42.35 42.35 0 0 1 42.64 105c-.24.29-.48.58-.7.87a2.87 2.87 0 0 0 3.73 4.32A99.79 99.79 0 0 0 56 103.52c7-5 13.44-10.68 18.41-17.81 2.87-4.11 5.06-8.57 5.58-13.6a5.3 5.3 0 0 1 2.23-3.82 64.13 64.13 0 0 0 11-12A72.18 72.18 0 0 0 102.74 37a100.74 100.74 0 0 0 4.58-31.18c-.04-1.63-.13-3.27-.12-4.91zM33.74 38.74a54.72 54.72 0 0 0-5 14.16c-.11.52-.18.91-.92 1a43.17 43.17 0 0 0-14.52 4.17 1.61 1.61 0 0 1-1.3.32c5.94-8.55 12.18-16.6 22.1-21a1.82 1.82 0 0 1-.36 1.35zm19.84 59.34c.85-2.06 1.6-4 2.2-6a41.28 41.28 0 0 0 1.74-10c0-.56.14-.88.73-1A54.94 54.94 0 0 0 72.91 75c.16-.09.31-.21.5-.14-.41 5.31-11.79 18.67-19.83 23.22zm42.9-60.55a64.4 64.4 0 0 1-10.89 19.33 58.22 58.22 0 0 1-13.4 11.85 48.19 48.19 0 0 1-16.64 7.13 3.57 3.57 0 0 1-2.26-.3 27.94 27.94 0 0 1-5.82-3.78l-.16-.13a63.83 63.83 0 0 1-11.6-11.91 7.15 7.15 0 0 1-1.22-6.39 56.71 56.71 0 0 1 10.77-22c7.89-10 18.16-16.53 30.1-20.61A95.29 95.29 0 0 1 100.68 6c.67 0 .92.08.87.81-.06.89 0 1.79 0 2.68a92.49 92.49 0 0 1-5.07 28.04z" fill="#fafafa"/><path d="M70.53 23.07A14.33 14.33 0 1 0 85.22 37a14.36 14.36 0 0 0-14.69-13.93zM71.15 46a8.6 8.6 0 1 1 8.32-8.78A8.76 8.76 0 0 1 71.15 46z" fill="#fff"/></g></g></svg>