<svg xmlns="http://www.w3.org/2000/svg" viewBox="0 0 102.33 113.33"><defs><style>.cls-1{fill:#fafafa}</style></defs><g id="Camada_2" data-name="Camada 2"><g id="Camada_1-2" data-name="Camada 1"><rect class="cls-1" x="11" y="81.96" width="13.09" height="31.38" rx="3.62" ry="3.62"/><rect class="cls-1" x="33.96" y="64.7" width="13.09" height="48.63" rx="3.62" ry="3.62"/><rect class="cls-1" x="56.93" y="48.23" width="13.09" height="65.1" rx="3.62" ry="3.62"/><rect class="cls-1" x="79.89" y="34.11" width="13.09" height="79.22" rx="3.62" ry="3.62"/><path class="cls-1" d="M4.4 78.12a4.4 4.4 0 0 1-2.63-7.93L92 3.07a4.4 4.4 0 1 1 5.25 7.06L7 77.25a4.37 4.37 0 0 1-2.6.87z"/><path class="cls-1" d="M95.73 24.21a4.7 4.7 0 0 1-.63-.05 4.4 4.4 0 0 1-3.73-5L92.85 8.8H79.22a4.4 4.4 0 0 1 0-8.8h18.71a4.42 4.42 0 0 1 4.36 5l-2.21 15.41a4.4 4.4 0 0 1-4.35 3.8z"/></g></g></svg>