<svg xmlns="http://www.w3.org/2000/svg" viewBox="0 0 59.08 59.11"><g data-name="Camada 2"><path d="M44.74 35.43a4.18 4.18 0 0 0-1.37-.81c-.73-.35-4.21-2.07-4.87-2.3s-1.13-.35-1.59.35a35.36 35.36 0 0 1-2.27 2.76c-.41.48-.81.53-1.54.17a19.38 19.38 0 0 1-5.71-3.48 21.49 21.49 0 0 1-4-4.9c-.4-.71 0-1.08.33-1.44s.7-.81 1.06-1.24a2.33 2.33 0 0 0 .25-.32c.18-.28.28-.51.46-.84a1.32 1.32 0 0 0-.06-1.23c-.17-.36-1.61-3.84-2.19-5.26s-1.19-1.16-1.62-1.16-.88-.07-1.36-.07a2.61 2.61 0 0 0-1.89.88 8 8 0 0 0-2.48 5.88 8.59 8.59 0 0 0 .35 2.4 16 16 0 0 0 2.56 4.9c.35.48 4.92 7.83 12.14 10.66s7.22 1.89 8.53 1.76 4.22-1.69 4.8-3.36a5.9 5.9 0 0 0 .47-3.35zm0 0a4.18 4.18 0 0 0-1.37-.81c-.73-.35-4.21-2.07-4.87-2.3s-1.13-.35-1.59.35a35.36 35.36 0 0 1-2.27 2.76c-.41.48-.81.53-1.54.17a19.38 19.38 0 0 1-5.71-3.48 21.49 21.49 0 0 1-4-4.9c-.4-.71 0-1.08.33-1.44s.7-.81 1.06-1.24a2.33 2.33 0 0 0 .25-.32c.18-.28.28-.51.46-.84a1.32 1.32 0 0 0-.06-1.23c-.17-.36-1.61-3.84-2.19-5.26s-1.19-1.16-1.62-1.16-.88-.07-1.36-.07a2.61 2.61 0 0 0-1.89.88 8 8 0 0 0-2.48 5.88 8.59 8.59 0 0 0 .35 2.4 16 16 0 0 0 2.56 4.9c.35.48 4.92 7.83 12.14 10.66s7.22 1.89 8.53 1.76 4.22-1.69 4.8-3.36a5.9 5.9 0 0 0 .47-3.35zm0 0a4.18 4.18 0 0 0-1.37-.81c-.73-.35-4.21-2.07-4.87-2.3s-1.13-.35-1.59.35a35.36 35.36 0 0 1-2.27 2.76c-.41.48-.81.53-1.54.17a19.38 19.38 0 0 1-5.71-3.48 21.49 21.49 0 0 1-4-4.9c-.4-.71 0-1.08.33-1.44s.7-.81 1.06-1.24a2.33 2.33 0 0 0 .25-.32c.18-.28.28-.51.46-.84a1.32 1.32 0 0 0-.06-1.23c-.17-.36-1.61-3.84-2.19-5.26s-1.19-1.16-1.62-1.16-.88-.07-1.36-.07a2.61 2.61 0 0 0-1.89.88 8 8 0 0 0-2.48 5.88 8.59 8.59 0 0 0 .35 2.4 16 16 0 0 0 2.56 4.9c.35.48 4.92 7.83 12.14 10.66s7.22 1.89 8.53 1.76 4.22-1.69 4.8-3.36a5.9 5.9 0 0 0 .47-3.35zm0 0a4.18 4.18 0 0 0-1.37-.81c-.73-.35-4.21-2.07-4.87-2.3s-1.13-.35-1.59.35a35.36 35.36 0 0 1-2.27 2.76c-.41.48-.81.53-1.54.17a19.38 19.38 0 0 1-5.71-3.48 21.49 21.49 0 0 1-4-4.9c-.4-.71 0-1.08.33-1.44s.7-.81 1.06-1.24a2.33 2.33 0 0 0 .25-.32c.18-.28.28-.51.46-.84a1.32 1.32 0 0 0-.06-1.23c-.17-.36-1.61-3.84-2.19-5.26s-1.19-1.16-1.62-1.16-.88-.07-1.36-.07a2.61 2.61 0 0 0-1.89.88 8 8 0 0 0-2.48 5.88 8.59 8.59 0 0 0 .35 2.4 16 16 0 0 0 2.56 4.9c.35.48 4.92 7.83 12.14 10.66s7.22 1.89 8.53 1.76 4.22-1.69 4.8-3.36a5.9 5.9 0 0 0 .47-3.35zm0 0a4.18 4.18 0 0 0-1.37-.81c-.73-.35-4.21-2.07-4.87-2.3s-1.13-.35-1.59.35a35.36 35.36 0 0 1-2.27 2.76c-.41.48-.81.53-1.54.17a19.38 19.38 0 0 1-5.71-3.48 21.49 21.49 0 0 1-4-4.9c-.4-.71 0-1.08.33-1.44s.7-.81 1.06-1.24a2.33 2.33 0 0 0 .25-.32c.18-.28.28-.51.46-.84a1.32 1.32 0 0 0-.06-1.23c-.17-.36-1.61-3.84-2.19-5.26s-1.19-1.16-1.62-1.16-.88-.07-1.36-.07a2.61 2.61 0 0 0-1.89.88 8 8 0 0 0-2.48 5.88 8.59 8.59 0 0 0 .35 2.4 16 16 0 0 0 2.56 4.9c.35.48 4.92 7.83 12.14 10.66s7.22 1.89 8.53 1.76 4.22-1.69 4.8-3.36a5.9 5.9 0 0 0 .47-3.35zm0 0a4.18 4.18 0 0 0-1.37-.81c-.73-.35-4.21-2.07-4.87-2.3s-1.13-.35-1.59.35a35.36 35.36 0 0 1-2.27 2.76c-.41.48-.81.53-1.54.17a19.38 19.38 0 0 1-5.71-3.48 21.49 21.49 0 0 1-4-4.9c-.4-.71 0-1.08.33-1.44s.7-.81 1.06-1.24a2.33 2.33 0 0 0 .25-.32c.18-.28.28-.51.46-.84a1.32 1.32 0 0 0-.06-1.23c-.17-.36-1.61-3.84-2.19-5.26s-1.19-1.16-1.62-1.16-.88-.07-1.36-.07a2.61 2.61 0 0 0-1.89.88 8 8 0 0 0-2.48 5.88 8.59 8.59 0 0 0 .35 2.4 16 16 0 0 0 2.56 4.9c.35.48 4.92 7.83 12.14 10.66s7.22 1.89 8.53 1.76 4.22-1.69 4.8-3.36a5.9 5.9 0 0 0 .47-3.35zm0 0a4.18 4.18 0 0 0-1.37-.81c-.73-.35-4.21-2.07-4.87-2.3s-1.13-.35-1.59.35a35.36 35.36 0 0 1-2.27 2.76c-.41.48-.81.53-1.54.17a19.38 19.38 0 0 1-5.71-3.48 21.49 21.49 0 0 1-4-4.9c-.4-.71 0-1.08.33-1.44s.7-.81 1.06-1.24a2.33 2.33 0 0 0 .25-.32c.18-.28.28-.51.46-.84a1.32 1.32 0 0 0-.06-1.23c-.17-.36-1.61-3.84-2.19-5.26s-1.19-1.16-1.62-1.16-.88-.07-1.36-.07a2.61 2.61 0 0 0-1.89.88 8 8 0 0 0-2.48 5.88 8.59 8.59 0 0 0 .35 2.4 16 16 0 0 0 2.56 4.9c.35.48 4.92 7.83 12.14 10.66s7.22 1.89 8.53 1.76 4.22-1.69 4.8-3.36a5.9 5.9 0 0 0 .47-3.35zm0 0a4.18 4.18 0 0 0-1.37-.81c-.73-.35-4.21-2.07-4.87-2.3s-1.13-.35-1.59.35a35.36 35.36 0 0 1-2.27 2.76c-.41.48-.81.53-1.54.17a19.38 19.38 0 0 1-5.71-3.48 21.49 21.49 0 0 1-4-4.9c-.4-.71 0-1.08.33-1.44s.7-.81 1.06-1.24a2.33 2.33 0 0 0 .25-.32c.18-.28.28-.51.46-.84a1.32 1.32 0 0 0-.06-1.23c-.17-.36-1.61-3.84-2.19-5.26s-1.19-1.16-1.62-1.16-.88-.07-1.36-.07a2.61 2.61 0 0 0-1.89.88 8 8 0 0 0-2.48 5.88 8.59 8.59 0 0 0 .35 2.4 16 16 0 0 0 2.56 4.9c.35.48 4.92 7.83 12.14 10.66s7.22 1.89 8.53 1.76 4.22-1.69 4.8-3.36a5.9 5.9 0 0 0 .47-3.35zm0 0a4.18 4.18 0 0 0-1.37-.81c-.73-.35-4.21-2.07-4.87-2.3s-1.13-.35-1.59.35a35.36 35.36 0 0 1-2.27 2.76c-.41.48-.81.53-1.54.17a19.38 19.38 0 0 1-5.71-3.48 21.49 21.49 0 0 1-4-4.9c-.4-.71 0-1.08.33-1.44s.7-.81 1.06-1.24a2.33 2.33 0 0 0 .25-.32c.18-.28.28-.51.46-.84a1.32 1.32 0 0 0-.06-1.23c-.17-.36-1.61-3.84-2.19-5.26s-1.19-1.16-1.62-1.16-.88-.07-1.36-.07a2.61 2.61 0 0 0-1.89.88 8 8 0 0 0-2.48 5.88 8.59 8.59 0 0 0 .35 2.4 16 16 0 0 0 2.56 4.9c.35.48 4.92 7.83 12.14 10.66s7.22 1.89 8.53 1.76 4.22-1.69 4.8-3.36a5.9 5.9 0 0 0 .47-3.35zm0 0a4.18 4.18 0 0 0-1.37-.81c-.73-.35-4.21-2.07-4.87-2.3s-1.13-.35-1.59.35a35.36 35.36 0 0 1-2.27 2.76c-.41.48-.81.53-1.54.17a19.38 19.38 0 0 1-5.71-3.48 21.49 21.49 0 0 1-4-4.9c-.4-.71 0-1.08.33-1.44s.7-.81 1.06-1.24a2.33 2.33 0 0 0 .25-.32c.18-.28.28-.51.46-.84a1.32 1.32 0 0 0-.06-1.23c-.17-.36-1.61-3.84-2.19-5.26s-1.19-1.16-1.62-1.16-.88-.07-1.36-.07a2.61 2.61 0 0 0-1.89.88 8 8 0 0 0-2.48 5.88 8.59 8.59 0 0 0 .35 2.4 16 16 0 0 0 2.56 4.9c.35.48 4.92 7.83 12.14 10.66s7.22 1.89 8.53 1.76 4.22-1.69 4.8-3.36a5.9 5.9 0 0 0 .47-3.35zm0 0a4.18 4.18 0 0 0-1.37-.81c-.73-.35-4.21-2.07-4.87-2.3s-1.13-.35-1.59.35a35.36 35.36 0 0 1-2.27 2.76c-.41.48-.81.53-1.54.17a19.38 19.38 0 0 1-5.71-3.48 21.49 21.49 0 0 1-4-4.9c-.4-.71 0-1.08.33-1.44s.7-.81 1.06-1.24a2.33 2.33 0 0 0 .25-.32c.18-.28.28-.51.46-.84a1.32 1.32 0 0 0-.06-1.23c-.17-.36-1.61-3.84-2.19-5.26s-1.19-1.16-1.62-1.16-.88-.07-1.36-.07a2.61 2.61 0 0 0-1.89.88 8 8 0 0 0-2.48 5.88 8.59 8.59 0 0 0 .35 2.4 16 16 0 0 0 2.56 4.9c.35.48 4.92 7.83 12.14 10.66s7.22 1.89 8.53 1.76 4.22-1.69 4.8-3.36a5.9 5.9 0 0 0 .47-3.35zm0 0a4.18 4.18 0 0 0-1.37-.81c-.73-.35-4.21-2.07-4.87-2.3s-1.13-.35-1.59.35a35.36 35.36 0 0 1-2.27 2.76c-.41.48-.81.53-1.54.17a19.38 19.38 0 0 1-5.71-3.48 21.49 21.49 0 0 1-4-4.9c-.4-.71 0-1.08.33-1.44s.7-.81 1.06-1.24a2.33 2.33 0 0 0 .25-.32c.18-.28.28-.51.46-.84a1.32 1.32 0 0 0-.06-1.23c-.17-.36-1.61-3.84-2.19-5.26s-1.19-1.16-1.62-1.16-.88-.07-1.36-.07a2.61 2.61 0 0 0-1.89.88 8 8 0 0 0-2.48 5.88 8.59 8.59 0 0 0 .35 2.4 16 16 0 0 0 2.56 4.9c.35.48 4.92 7.83 12.14 10.66s7.22 1.89 8.53 1.76 4.22-1.69 4.8-3.36a5.9 5.9 0 0 0 .47-3.35zM30.07 0a28.94 28.94 0 0 0-29 27.55v1.26a28.46 28.46 0 0 0 4.16 14.87L0 59.11 16.06 54a29.05 29.05 0 0 0 43-25.2v-.73A29 29 0 0 0 30.07 0zm0 53a24.39 24.39 0 0 1-13.41-4l-9.39 3 3.06-9a24.06 24.06 0 0 1-4.65-14.19 22.35 22.35 0 0 1 .13-2.35 24.4 24.4 0 0 1 48.57.46c0 .6.08 1.23.08 1.89A24.32 24.32 0 0 1 30.07 53zm13.3-18.38c-.73-.35-4.21-2.07-4.87-2.3s-1.13-.35-1.59.35a35.36 35.36 0 0 1-2.27 2.76c-.41.48-.81.53-1.54.17a19.38 19.38 0 0 1-5.71-3.48 21.49 21.49 0 0 1-4-4.9c-.4-.71 0-1.08.33-1.44s.7-.81 1.06-1.24a2.33 2.33 0 0 0 .25-.32c.18-.28.28-.51.46-.84a1.32 1.32 0 0 0-.06-1.23c-.17-.36-1.61-3.84-2.19-5.26s-1.19-1.16-1.62-1.16-.88-.07-1.36-.07a2.61 2.61 0 0 0-1.89.88 8 8 0 0 0-2.48 5.88 8.59 8.59 0 0 0 .35 2.4 16 16 0 0 0 2.56 4.9c.35.48 4.92 7.83 12.14 10.66s7.22 1.89 8.53 1.76 4.22-1.69 4.8-3.36a5.9 5.9 0 0 0 .43-3.35 4.18 4.18 0 0 0-1.33-.81zm1.37.81a4.18 4.18 0 0 0-1.37-.81c-.73-.35-4.21-2.07-4.87-2.3s-1.13-.35-1.59.35a35.36 35.36 0 0 1-2.27 2.76c-.41.48-.81.53-1.54.17a19.38 19.38 0 0 1-5.71-3.48 21.49 21.49 0 0 1-4-4.9c-.4-.71 0-1.08.33-1.44s.7-.81 1.06-1.24a2.33 2.33 0 0 0 .25-.32c.18-.28.28-.51.46-.84a1.32 1.32 0 0 0-.06-1.23c-.17-.36-1.61-3.84-2.19-5.26s-1.19-1.16-1.62-1.16-.88-.07-1.36-.07a2.61 2.61 0 0 0-1.89.88 8 8 0 0 0-2.48 5.88 8.59 8.59 0 0 0 .35 2.4 16 16 0 0 0 2.56 4.9c.35.48 4.92 7.83 12.14 10.66s7.22 1.89 8.53 1.76 4.22-1.69 4.8-3.36a5.9 5.9 0 0 0 .47-3.35zm0 0a4.18 4.18 0 0 0-1.37-.81c-.73-.35-4.21-2.07-4.87-2.3s-1.13-.35-1.59.35a35.36 35.36 0 0 1-2.27 2.76c-.41.48-.81.53-1.54.17a19.38 19.38 0 0 1-5.71-3.48 21.49 21.49 0 0 1-4-4.9c-.4-.71 0-1.08.33-1.44s.7-.81 1.06-1.24a2.33 2.33 0 0 0 .25-.32c.18-.28.28-.51.46-.84a1.32 1.32 0 0 0-.06-1.23c-.17-.36-1.61-3.84-2.19-5.26s-1.19-1.16-1.62-1.16-.88-.07-1.36-.07a2.61 2.61 0 0 0-1.89.88 8 8 0 0 0-2.48 5.88 8.59 8.59 0 0 0 .35 2.4 16 16 0 0 0 2.56 4.9c.35.48 4.92 7.83 12.14 10.66s7.22 1.89 8.53 1.76 4.22-1.69 4.8-3.36a5.9 5.9 0 0 0 .47-3.35zm0 0a4.18 4.18 0 0 0-1.37-.81c-.73-.35-4.21-2.07-4.87-2.3s-1.13-.35-1.59.35a35.36 35.36 0 0 1-2.27 2.76c-.41.48-.81.53-1.54.17a19.38 19.38 0 0 1-5.71-3.48 21.49 21.49 0 0 1-4-4.9c-.4-.71 0-1.08.33-1.44s.7-.81 1.06-1.24a2.33 2.33 0 0 0 .25-.32c.18-.28.28-.51.46-.84a1.32 1.32 0 0 0-.06-1.23c-.17-.36-1.61-3.84-2.19-5.26s-1.19-1.16-1.62-1.16-.88-.07-1.36-.07a2.61 2.61 0 0 0-1.89.88 8 8 0 0 0-2.48 5.88 8.59 8.59 0 0 0 .35 2.4 16 16 0 0 0 2.56 4.9c.35.48 4.92 7.83 12.14 10.66s7.22 1.89 8.53 1.76 4.22-1.69 4.8-3.36a5.9 5.9 0 0 0 .47-3.35zm0 0a4.18 4.18 0 0 0-1.37-.81c-.73-.35-4.21-2.07-4.87-2.3s-1.13-.35-1.59.35a35.36 35.36 0 0 1-2.27 2.76c-.41.48-.81.53-1.54.17a19.38 19.38 0 0 1-5.71-3.48 21.49 21.49 0 0 1-4-4.9c-.4-.71 0-1.08.33-1.44s.7-.81 1.06-1.24a2.33 2.33 0 0 0 .25-.32c.18-.28.28-.51.46-.84a1.32 1.32 0 0 0-.06-1.23c-.17-.36-1.61-3.84-2.19-5.26s-1.19-1.16-1.62-1.16-.88-.07-1.36-.07a2.61 2.61 0 0 0-1.89.88 8 8 0 0 0-2.48 5.88 8.59 8.59 0 0 0 .35 2.4 16 16 0 0 0 2.56 4.9c.35.48 4.92 7.83 12.14 10.66s7.22 1.89 8.53 1.76 4.22-1.69 4.8-3.36a5.9 5.9 0 0 0 .47-3.35zm0 0a4.18 4.18 0 0 0-1.37-.81c-.73-.35-4.21-2.07-4.87-2.3s-1.13-.35-1.59.35a35.36 35.36 0 0 1-2.27 2.76c-.41.48-.81.53-1.54.17a19.38 19.38 0 0 1-5.71-3.48 21.49 21.49 0 0 1-4-4.9c-.4-.71 0-1.08.33-1.44s.7-.81 1.06-1.24a2.33 2.33 0 0 0 .25-.32c.18-.28.28-.51.46-.84a1.32 1.32 0 0 0-.06-1.23c-.17-.36-1.61-3.84-2.19-5.26s-1.19-1.16-1.62-1.16-.88-.07-1.36-.07a2.61 2.61 0 0 0-1.89.88 8 8 0 0 0-2.48 5.88 8.59 8.59 0 0 0 .35 2.4 16 16 0 0 0 2.56 4.9c.35.48 4.92 7.83 12.14 10.66s7.22 1.89 8.53 1.76 4.22-1.69 4.8-3.36a5.9 5.9 0 0 0 .47-3.35zm0 0a4.18 4.18 0 0 0-1.37-.81c-.73-.35-4.21-2.07-4.87-2.3s-1.13-.35-1.59.35a35.36 35.36 0 0 1-2.27 2.76c-.41.48-.81.53-1.54.17a19.38 19.38 0 0 1-5.71-3.48 21.49 21.49 0 0 1-4-4.9c-.4-.71 0-1.08.33-1.44s.7-.81 1.06-1.24a2.33 2.33 0 0 0 .25-.32c.18-.28.28-.51.46-.84a1.32 1.32 0 0 0-.06-1.23c-.17-.36-1.61-3.84-2.19-5.26s-1.19-1.16-1.62-1.16-.88-.07-1.36-.07a2.61 2.61 0 0 0-1.89.88 8 8 0 0 0-2.48 5.88 8.59 8.59 0 0 0 .35 2.4 16 16 0 0 0 2.56 4.9c.35.48 4.92 7.83 12.14 10.66s7.22 1.89 8.53 1.76 4.22-1.69 4.8-3.36a5.9 5.9 0 0 0 .47-3.35zm0 0a4.18 4.18 0 0 0-1.37-.81c-.73-.35-4.21-2.07-4.87-2.3s-1.13-.35-1.59.35a35.36 35.36 0 0 1-2.27 2.76c-.41.48-.81.53-1.54.17a19.38 19.38 0 0 1-5.71-3.48 21.49 21.49 0 0 1-4-4.9c-.4-.71 0-1.08.33-1.44s.7-.81 1.06-1.24a2.33 2.33 0 0 0 .25-.32c.18-.28.28-.51.46-.84a1.32 1.32 0 0 0-.06-1.23c-.17-.36-1.61-3.84-2.19-5.26s-1.19-1.16-1.62-1.16-.88-.07-1.36-.07a2.61 2.61 0 0 0-1.89.88 8 8 0 0 0-2.48 5.88 8.59 8.59 0 0 0 .35 2.4 16 16 0 0 0 2.56 4.9c.35.48 4.92 7.83 12.14 10.66s7.22 1.89 8.53 1.76 4.22-1.69 4.8-3.36a5.9 5.9 0 0 0 .47-3.35zm0 0a4.18 4.18 0 0 0-1.37-.81c-.73-.35-4.21-2.07-4.87-2.3s-1.13-.35-1.59.35a35.36 35.36 0 0 1-2.27 2.76c-.41.48-.81.53-1.54.17a19.38 19.38 0 0 1-5.71-3.48 21.49 21.49 0 0 1-4-4.9c-.4-.71 0-1.08.33-1.44s.7-.81 1.06-1.24a2.33 2.33 0 0 0 .25-.32c.18-.28.28-.51.46-.84a1.32 1.32 0 0 0-.06-1.23c-.17-.36-1.61-3.84-2.19-5.26s-1.19-1.16-1.62-1.16-.88-.07-1.36-.07a2.61 2.61 0 0 0-1.89.88 8 8 0 0 0-2.48 5.88 8.59 8.59 0 0 0 .35 2.4 16 16 0 0 0 2.56 4.9c.35.48 4.92 7.83 12.14 10.66s7.22 1.89 8.53 1.76 4.22-1.69 4.8-3.36a5.9 5.9 0 0 0 .47-3.35zm0 0a4.18 4.18 0 0 0-1.37-.81c-.73-.35-4.21-2.07-4.87-2.3s-1.13-.35-1.59.35a35.36 35.36 0 0 1-2.27 2.76c-.41.48-.81.53-1.54.17a19.38 19.38 0 0 1-5.71-3.48 21.49 21.49 0 0 1-4-4.9c-.4-.71 0-1.08.33-1.44s.7-.81 1.06-1.24a2.33 2.33 0 0 0 .25-.32c.18-.28.28-.51.46-.84a1.32 1.32 0 0 0-.06-1.23c-.17-.36-1.61-3.84-2.19-5.26s-1.19-1.16-1.62-1.16-.88-.07-1.36-.07a2.61 2.61 0 0 0-1.89.88 8 8 0 0 0-2.48 5.88 8.59 8.59 0 0 0 .35 2.4 16 16 0 0 0 2.56 4.9c.35.48 4.92 7.83 12.14 10.66s7.22 1.89 8.53 1.76 4.22-1.69 4.8-3.36a5.9 5.9 0 0 0 .47-3.35zm0 0a4.18 4.18 0 0 0-1.37-.81c-.73-.35-4.21-2.07-4.87-2.3s-1.13-.35-1.59.35a35.36 35.36 0 0 1-2.27 2.76c-.41.48-.81.53-1.54.17a19.38 19.38 0 0 1-5.71-3.48 21.49 21.49 0 0 1-4-4.9c-.4-.71 0-1.08.33-1.44s.7-.81 1.06-1.24a2.33 2.33 0 0 0 .25-.32c.18-.28.28-.51.46-.84a1.32 1.32 0 0 0-.06-1.23c-.17-.36-1.61-3.84-2.19-5.26s-1.19-1.16-1.62-1.16-.88-.07-1.36-.07a2.61 2.61 0 0 0-1.89.88 8 8 0 0 0-2.48 5.88 8.59 8.59 0 0 0 .35 2.4 16 16 0 0 0 2.56 4.9c.35.48 4.92 7.83 12.14 10.66s7.22 1.89 8.53 1.76 4.22-1.69 4.8-3.36a5.9 5.9 0 0 0 .47-3.35zm0 0a4.18 4.18 0 0 0-1.37-.81c-.73-.35-4.21-2.07-4.87-2.3s-1.13-.35-1.59.35a35.36 35.36 0 0 1-2.27 2.76c-.41.48-.81.53-1.54.17a19.38 19.38 0 0 1-5.71-3.48 21.49 21.49 0 0 1-4-4.9c-.4-.71 0-1.08.33-1.44s.7-.81 1.06-1.24a2.33 2.33 0 0 0 .25-.32c.18-.28.28-.51.46-.84a1.32 1.32 0 0 0-.06-1.23c-.17-.36-1.61-3.84-2.19-5.26s-1.19-1.16-1.62-1.16-.88-.07-1.36-.07a2.61 2.61 0 0 0-1.89.88 8 8 0 0 0-2.48 5.88 8.59 8.59 0 0 0 .35 2.4 16 16 0 0 0 2.56 4.9c.35.48 4.92 7.83 12.14 10.66s7.22 1.89 8.53 1.76 4.22-1.69 4.8-3.36a5.9 5.9 0 0 0 .47-3.35zm0 0a4.18 4.18 0 0 0-1.37-.81c-.73-.35-4.21-2.07-4.87-2.3s-1.13-.35-1.59.35a35.36 35.36 0 0 1-2.27 2.76c-.41.48-.81.53-1.54.17a19.38 19.38 0 0 1-5.71-3.48 21.49 21.49 0 0 1-4-4.9c-.4-.71 0-1.08.33-1.44s.7-.81 1.06-1.24a2.33 2.33 0 0 0 .25-.32c.18-.28.28-.51.46-.84a1.32 1.32 0 0 0-.06-1.23c-.17-.36-1.61-3.84-2.19-5.26s-1.19-1.16-1.62-1.16-.88-.07-1.36-.07a2.61 2.61 0 0 0-1.89.88 8 8 0 0 0-2.48 5.88 8.59 8.59 0 0 0 .35 2.4 16 16 0 0 0 2.56 4.9c.35.48 4.92 7.83 12.14 10.66s7.22 1.89 8.53 1.76 4.22-1.69 4.8-3.36a5.9 5.9 0 0 0 .47-3.35zm0 0a4.18 4.18 0 0 0-1.37-.81c-.73-.35-4.21-2.07-4.87-2.3s-1.13-.35-1.59.35a35.36 35.36 0 0 1-2.27 2.76c-.41.48-.81.53-1.54.17a19.38 19.38 0 0 1-5.71-3.48 21.49 21.49 0 0 1-4-4.9c-.4-.71 0-1.08.33-1.44s.7-.81 1.06-1.24a2.33 2.33 0 0 0 .25-.32c.18-.28.28-.51.46-.84a1.32 1.32 0 0 0-.06-1.23c-.17-.36-1.61-3.84-2.19-5.26s-1.19-1.16-1.62-1.16-.88-.07-1.36-.07a2.61 2.61 0 0 0-1.89.88 8 8 0 0 0-2.48 5.88 8.59 8.59 0 0 0 .35 2.4 16 16 0 0 0 2.56 4.9c.35.48 4.92 7.83 12.14 10.66s7.22 1.89 8.53 1.76 4.22-1.69 4.8-3.36a5.9 5.9 0 0 0 .47-3.35zm0 0a4.18 4.18 0 0 0-1.37-.81c-.73-.35-4.21-2.07-4.87-2.3s-1.13-.35-1.59.35a35.36 35.36 0 0 1-2.27 2.76c-.41.48-.81.53-1.54.17a19.38 19.38 0 0 1-5.71-3.48 21.49 21.49 0 0 1-4-4.9c-.4-.71 0-1.08.33-1.44s.7-.81 1.06-1.24a2.33 2.33 0 0 0 .25-.32c.18-.28.28-.51.46-.84a1.32 1.32 0 0 0-.06-1.23c-.17-.36-1.61-3.84-2.19-5.26s-1.19-1.16-1.62-1.16-.88-.07-1.36-.07a2.61 2.61 0 0 0-1.89.88 8 8 0 0 0-2.48 5.88 8.59 8.59 0 0 0 .35 2.4 16 16 0 0 0 2.56 4.9c.35.48 4.92 7.83 12.14 10.66s7.22 1.89 8.53 1.76 4.22-1.69 4.8-3.36a5.9 5.9 0 0 0 .47-3.35z" fill="#fefefe" fill-rule="evenodd" data-name="Camada 1"/></g></svg>