<svg xmlns="http://www.w3.org/2000/svg" viewBox="0 0 366.3 95"><defs><style>.cls-1{fill:#fff}</style></defs><g id="Camada_2" data-name="Camada 2"><g id="Camada_1-2" data-name="Camada 1"><path class="cls-1" d="M59.87 6.25c.15-1.78-.81-4.15.35-5.17 1-.87 3.31-.27 5-.28 2.28 0 2.35 0 2.26 2.29-.39 10.44-.87 20.91-1.29 31.31-.1 2.32 0 4.65-.07 7-.08 3.6-.24 7.2-.32 10.8 0 .77-.27 1-1 1h-5.76c-.72 0-1-.17-1-1 .37-6.72.68-13.44 1-20.16.17-3.24.24-6.5.32-9.75.2-5.36.4-10.7.51-16.04zM144.31.78a31.72 31.72 0 0 1-4.36 0c-1.74-.18-2.32.3-2.31 2.19 0 5.93-.1 11.86-.33 17.78-.39 9.62-.93 19.24-1.3 28.87 0 1.14-.91 2.72.07 3.37s2.36.12 3.58.12v.06h2.79c.92 0 1.2-.23 1.21-1.16.07-5.18.24-10.35.32-15.52.06-4.82.29-9.64.45-14.46.11-3.18.11-6.39.35-9.57.27-3.53.39-7.06.61-10.6.05-.86-.25-1.11-1.08-1.08zM141.37 91c1.48-3 2.89-5.86 4.28-8.71 1.78-3.65 3.54-7.31 5.33-11a3.25 3.25 0 0 1 4.12-2 1.31 1.31 0 0 1 1.15 1.48v22.67c0 1.07-.55 1.24-1.41 1.25-1.15 0-1.31-.65-1.31-1.58v-19a3.57 3.57 0 0 0-.25-2c-.35.65-.65 1.18-.92 1.72Q147.68 83.4 143 93c-.41.84-.71 1.7-1.94 1.66s-1.35-.92-1.71-1.69l-9.92-21.41c-.05.88-.1 1.35-.11 1.82v19.53c0 1.1-.15 1.78-1.47 1.75s-1.29-.83-1.29-1.76V71.79c0-.94-.33-2.06 1-2.5a3.92 3.92 0 0 1 4.12 1.13 11.24 11.24 0 0 1 .78 1.55q4 8.61 8 17.21c.28.55.54 1.06.91 1.82zM26.34 78.67c.64-.49 1.18-.91 1.73-1.3 3.61-2.6 7.35-2.17 10.09 1.29.69.87.94.2 1.3-.12 1.92-1.71 4-3 6.72-2.74A5.74 5.74 0 0 1 51.8 81c.51 4.17.14 8.37.23 12.55 0 1-.58 1.14-1.37 1.13s-1.29-.26-1.28-1.21V83.18a7.71 7.71 0 0 0-.62-3.18 3.77 3.77 0 0 0-3.3-2.23c-2.76-.29-6.27 2.87-6.27 5.63v9.24c0 .93.35 2.07-1.28 2.09s-1.37-1.19-1.38-2.17v-9.77a5.88 5.88 0 0 0-1-3.45 3.83 3.83 0 0 0-3.33-1.59c-2.8 0-5.85 3.13-5.85 5.9v9.25c0 1 .06 1.86-1.37 1.84s-1.3-1-1.29-1.92V77.99c0-.89-.27-2 1.22-2s1.31 1 1.32 1.9a6.47 6.47 0 0 0 .11.78zm191.02 14.02V69.14c0-.91.09-1.71-1.28-1.71s-1.29.77-1.28 1.7v9.32c-.89-.65-1.43-1.09-2-1.46a8.09 8.09 0 0 0-12.3 4.91 15.41 15.41 0 0 0-.32 5.37c.56 6.7 7 9.79 12.62 6.07.66-.43 1.29-.91 2-1.45.05.4.1.62.11.84 0 .89-.26 2 1.26 2s1.19-1.22 1.19-2.04zm-6.76-.34a5 5 0 0 1-7.22-3.23 12.15 12.15 0 0 1 0-7.38c1.19-3.75 4.8-5 8.22-3.1 2.58 1.47 4.06 3.43 3.11 6.51 1.04 3.79-1.03 5.85-4.11 7.2zM199.77.78c-5.21.06-10.43 0-15.65.07h-16.76A1.37 1.37 0 0 1 167 1l.36-.11c-4.7 0-9.4 0-14.1-.08-1.23 0-1.55.37-1.58 1.56-.08 2.84.29 5.7-.26 8.51-.29 1.51.21 1.91 1.69 1.84 4.86-.25 9.73-.55 14.61-.32.13 4.88-.37 9.75-.43 14.63 0 2.48-.14 5-.32 7.48-.42 5.77-.85 11.54-1.37 17.3-.11 1.25.34 1.42 1.41 1.41 4.65 0 9.31-.07 14 0 1.26 0 1.49-.42 1.55-1.58.21-4.13.13-8.26.24-12.38.1-3.94.39-7.88.6-11.82q.36-6.85.71-13.71c-.11-1.14.41-1.45 1.52-1.42 4.46.14 8.92-.18 13.37.34.66.08 1.62.38 1.57-.92A85 85 0 0 1 200.9 2c.1-.88-.17-1.24-1.13-1.22zM7.69 94.8a14.12 14.12 0 0 1-6.2-1.28 2.13 2.13 0 0 1-1.31-1.09 1.68 1.68 0 0 1 .08-1.67c.46-.57 1-.05 1.38.18a11.6 11.6 0 0 0 8.72 1.37 4.43 4.43 0 0 0 3.63-4 4.07 4.07 0 0 0-2.54-4.19C9.29 83 7 82.14 4.85 81S1 78.3.83 75.57A5.5 5.5 0 0 1 4.19 70a11.35 11.35 0 0 1 9.93.2c.48.22 1 .47 1.06 1.07s.22 1.09-.21 1.49-.87 0-1.25-.23A9.81 9.81 0 0 0 7 71.3a3.81 3.81 0 0 0-1.67 7 21.39 21.39 0 0 0 4 2.06 37.7 37.7 0 0 1 4.38 2.13c4.34 2.72 4.16 8.4-.28 11a10.75 10.75 0 0 1-5.74 1.31zm66.73-13.52a4.7 4.7 0 0 0-2.53-4.49c-3.75-1.76-7.45-1.23-11 .58a1.28 1.28 0 0 0-.61 1.79c.4.82 1 .18 1.47 0a10.9 10.9 0 0 1 6.21-1.29c2.74.36 3.69 1.46 3.93 4.17.14 1.58-.38 2-1.91 1.9a14.8 14.8 0 0 0-7.81 1.25 4.85 4.85 0 0 0-2.93 4.91 4.68 4.68 0 0 0 3.69 4.33 9.22 9.22 0 0 0 9.23-2.16v1.23c-.07.93.43 1.22 1.28 1.21s1.11-.39 1.11-1.2c-.09-4.1-.02-8.17-.13-12.23zm-2.7 8.42c-.77 1.82-2.66 2.67-4.6 3a4.36 4.36 0 0 1-4.46-1.27 3.14 3.14 0 0 1 1.15-4.84 11.29 11.29 0 0 1 4.89-.89c3.04.04 4.12 1.4 3.02 4zm107.57-10.9c1.94-1.57 3.73-2.93 6.14-3 4.48-.16 7.12 2 7.34 6.5.18 3.71 0 7.44.08 11.16 0 1-.46 1.2-1.28 1.22s-1.41-.26-1.41-1.29c0-3.72 0-7.44-.08-11.16a4.21 4.21 0 0 0-3.81-4.46c-3.18-.5-7 2.67-7 5.84v9.59c0 1-.26 1.51-1.36 1.49s-1.22-.56-1.22-1.45v-15.7c0-.92.07-1.6 1.25-1.58s1.31.69 1.24 1.61a10.67 10.67 0 0 0 .11 1.23zm128.17-37.44c-2.35.45-4.73.18-7.09.34h-5.24c-2.9 0-5.8-.12-8.7 0-1.43 0-1.84-.29-1.74-1.8.53-7.86.92-15.72 1.37-23.58.27-4.85.51-9.7.86-14.54.07-.89-.18-1-.88-1-1.51 0-3 0-4.52.07-3.55 0-7.09 0-10.64-.08-.85 0-1.24.16-1.22 1.13.16 10.29-.55 20.54-1.07 30.8-.18 3.64-.62 7.26-.95 10.89-.25 2.76-.49 5.52-.77 8.28-.1 1 .19 1.32 1.22 1.3 4.24-.08 8.48-.08 12.73-.1h22.69l3.29.06c.39 0 .85.07.9-.53.28-3.55.71-7.1.73-10.67 0-.72-.54-.65-.97-.57zm50.86.75l-.15-.17-1.46-1.66-.15-.21-9.69-11.22c-.5-.53-1-1.07-1.42-1.62L344.39 26l5.37-5.84c.44-.47.87-.93 1.33-1.37l9.1-9.44a1.41 1.41 0 0 1 .14-.18l1.37-1.39.15-.15 4-4.1a1.46 1.46 0 0 0-1-2.48h-17.96a3.84 3.84 0 0 0-2.78 1.2l-4.76 5-5.6 5.91-1.84 1.92v-.82l.21-3c.21-3 .43-6 .68-9C333 1 332.55.72 331.43.77c-2 .11-3.95.07-5.92.09-2.85 0-5.69 0-8.53-.09-1 0-1.23.34-1.25 1.29q-.06 3.58-.18 7.17c-.09 2.77-.2 5.53-.33 8.3q-.21 4.45-.43 8.89c-.43 8.51-.8 17-1.8 25.48-.1.83 0 1.33 1.06 1.27 1.62-.09 3.25-.07 4.87-.1l8.88.08c2.38 0 2.44 0 2.54-2.42.13-3.37.26-6.75.37-10.12.06-1.72.12-3.45.17-5.17.76.88 1.52 1.77 2.27 2.66l1.52 1.78c3.41 4 6.83 8 10.21 12A3 3 0 0 0 347.2 53H365a1.33 1.33 0 0 0 1-2.22c-2.6-2.88-5.14-5.78-7.68-8.67z"/><path fill="none" d="M329.96 22.03v6.37"/><path class="cls-1" d="M100.68 84.52v-5.23c0-1-.21-1.43-1.25-1.3a12.89 12.89 0 0 1-1.39 0c-.67 0-.94-.34-.93-1s.24-.8.81-.93c.9-.21 2.15.63 2.65-.51a6.86 6.86 0 0 0 .08-2.76c0-.88 0-1.57 1.22-1.59s1.36.62 1.37 1.62c0 3.24 0 3.24 3.33 3.24h1.74c.68 0 1.13.22 1.08 1s-.44.88-1 .88h-4c-.68 0-1.12.13-1.12.94 0 3.49-.09 7 .09 10.46.16 3.07 1.57 3.92 4.57 3.15.51-.13 1.16-.71 1.45.15a1.32 1.32 0 0 1-.92 1.78c-3.94 1.63-7.62-.66-7.73-4.89v-5.06zM85.9 78.8c1.58-2 3.43-3.45 6.19-3 .4.07.79.15 1.18.25 1 .24.87 1 .77 1.68-.15.94-.86.56-1.37.45a5.79 5.79 0 0 0-7 5.64v9.06c0 .91.09 1.74-1.25 1.77s-1.34-.89-1.34-1.85v-15c0-.92-.21-2 1.28-1.92s1.2.94 1.21 1.83c.03.38-.14.76.33 1.09zm82.18 6.48v8c0 .94-.28 1.39-1.26 1.4s-1.35-.33-1.34-1.33v-16c0-.93.27-1.4 1.26-1.41s1.37.48 1.35 1.51c-.09 2.61-.01 5.22-.01 7.83zm-1.28-16.35c1.11 0 1.69.49 1.67 1.69s-.62 1.48-1.64 1.51-1.78-.38-1.78-1.56.65-1.65 1.75-1.64zm-42.04-45.11c-2.55.06-5.1.06-7.66.07l-9-.05c-.5 0-1.06-.14-1.09.7a32.82 32.82 0 0 1-.33 3.28c-.14 1 .27 1.31 1.25 1.26 3.07-.14 6.14-.21 9.22-.31a1.66 1.66 0 0 0 1.2 0c.38.77.07 1.61.25 2.4-.25 4.54-.6 9.08-.7 13.62 0 1.66-.55 2.44-2.16 2.52a53.91 53.91 0 0 1-14.65 1.39c-4.63-.77-9-2.09-12.64-5.26-5.29-5.83-5.94-12.73-4.6-20.07a22.31 22.31 0 0 1 7.78-13.46 26.71 26.71 0 0 1 14.22-4.56 38.94 38.94 0 0 1 7.4.27 62.88 62.88 0 0 1 9.65 2.45c.91.34 1.25.08 1.22-1-.05-1.28-.4-2.55-.33-3.79s-.59-1.61-1.52-1.75c-2.84-.42-5.63-1.17-8.53-1.17a3.11 3.11 0 0 0-.8-.26c-4.38-.07-8.78-.4-13.12.37a24.45 24.45 0 0 0-8.56 2.69 22.32 22.32 0 0 0-9.19 7.18c-5.76 7.5-7.39 16-5.38 25.14 1.43 6.53 4.8 11.8 11.09 14.8a32.42 32.42 0 0 0 13.61 3.49c1.91 0 3.82.05 5.73.06A42.59 42.59 0 0 0 116 53a.91.91 0 0 0 .51-.1 60.58 60.58 0 0 0 6.45-1c1.07-.15 1.48-.48 1.55-1.58.52-8.44.43-16.91 1.33-25.32.08-.94-.24-1.2-1.08-1.18zM47.89 13.77A18.62 18.62 0 0 0 30.53 1.14a1.6 1.6 0 0 0-1.31-.33L13.07.86c-3 0-6 0-9.06-.09-1.28-.05-1.67.28-1.69 1.61C2.24 9 2.2 15.63 1.84 22.23c-.19 3.43-.14 6.85-.34 10.26C1.1 39 .64 45.43.16 51.89c-.07 1 .25 1.34 1.24 1.29 1.69-.09 3.37-.07 5.05-.1 5.1 0 10.21.21 15.31 0a31.13 31.13 0 0 0 8.81-1.27 20.46 20.46 0 0 0 13.57-8.86c6.24-9.02 7.26-18.95 3.75-29.18zM41.9 27c-.59 7.75-3.67 14.1-10.66 18.11a3.47 3.47 0 0 0-1.22 1 1.43 1.43 0 0 0-1.15-.11 59.07 59.07 0 0 1-14.76 1.37 2.5 2.5 0 0 0-2 .47 2.17 2.17 0 0 0-1.11-.4c-2.7-.39-2.86-.41-2.57-3.21.42-4.06.36-8.13.57-12.23.2-4.46.44-8.94.53-13.41.06-3 .16-5.93.31-8.89s.24-2.86 2.85-3.4l.23-.2c.71.6 1.61.41 2.44.44 4.79.21 9.64-.34 14.41.46a1.74 1.74 0 0 0 1.17-.1 4.56 4.56 0 0 0 .8.39c5.9 2.17 8.85 6.62 9.89 12.62A28.85 28.85 0 0 1 41.9 27zM263 52.46a7.44 7.44 0 0 0-.22-.81l-10.64-28.16q-3.53-10.09-7.07-20.2c-.88-2.59-.89-2.58-3.68-2.44h-3.5L225.21.79c-.69 0-1.29 0-1.32 1l-8 15.72c-.31.48-.65.94-.92 1.45Q208.52 31 202.12 43.1c-1.76 3.29-3.57 6.56-5.48 10h13.56c4.8 0 4.8 0 6.68-4.53 1.26-2.68 2.65-5.32 3.74-8.07.72-1.8 1.67-2.78 3.66-2.46H233c1 0 2 0 2.93.07 1.7.14 3.44-.38 5.1.32 1.4 4.28 2.88 8.54 4.13 12.87.41 1.41.91 2.07 2.4 1.82a9 9 0 0 1 1.56 0h13c.32 0 1.45.6.88-.66zM237 27h-3.84a.3.3 0 0 0-.08-.08L233 27c-1.8 0-3.61-.06-5.41-.05-.8 0-1-.16-.64-1 2.14-4.39 4.23-8.81 6.35-13.21a2.72 2.72 0 0 0 0 .85c.06-.17.11-.35.16-.53 1.41 4.29 2.81 8.59 4.27 12.86.27.87.08 1.08-.73 1.08z"/></g></g></svg>