<svg xmlns="http://www.w3.org/2000/svg" viewBox="0 0 66.33 66.37"><defs><style>.cls-1{fill:#fefefe;fill-rule:evenodd;}</style></defs><title>icon_whats</title><g id="Camada_2" data-name="Camada 2"><g id="_9" data-name="9"><path class="cls-1" d="M33.76,59.51a27.37,27.37,0,0,1-15-4.48L8.16,58.37l3.43-10.09A27.06,27.06,0,0,1,6.38,32.35a25,25,0,0,1,.14-2.64,27.39,27.39,0,0,1,54.54.51c.06.68.08,1.39.08,2.13A27.3,27.3,0,0,1,33.76,59.51ZM48.7,38.87c-.82-.4-4.73-2.33-5.47-2.58s-1.28-.4-1.79.39a38.62,38.62,0,0,1-2.55,3.09c-.45.54-.91.6-1.73.2a21.87,21.87,0,0,1-6.4-3.91,24,24,0,0,1-4.45-5.5c-.46-.79,0-1.22.36-1.61s.8-.91,1.19-1.39a4.22,4.22,0,0,0,.29-.37c.2-.31.31-.57.51-.94a1.5,1.5,0,0,0-.06-1.39c-.2-.39-1.81-4.31-2.46-5.89s-1.34-1.31-1.82-1.31-1-.08-1.53-.08a3,3,0,0,0-2.13,1,9,9,0,0,0-2.77,6.6,9.58,9.58,0,0,0,.39,2.7,18,18,0,0,0,2.87,5.5c.39.54,5.52,8.79,13.63,12s8.11,2.13,9.58,2,4.74-1.9,5.39-3.77a6.53,6.53,0,0,0,.48-3.78,4.69,4.69,0,0,0-1.53-.9Zm17.63-7.35a32.58,32.58,0,0,0-65.11-.59c0,.45,0,.94,0,1.42a32,32,0,0,0,4.68,16.7L0,66.37l18-5.73a32.6,32.6,0,0,0,48.3-28.29v-.83Z"/></g></g></svg>